<svg width="22" height="20" viewBox="0 0 22 20" fill="none" xmlns="http://www.w3.org/2000/svg">
<g clip-path="url(#clip0_20682_617)">
<path d="M5.07896 9.35732C5.02717 9.02351 5.00029 8.68154 5.00029 8.33332C5.00029 4.65142 8.0047 1.66666 11.7108 1.66666C15.4169 1.66666 18.4213 4.65142 18.4213 8.33332C18.4213 9.16505 18.268 9.9612 17.988 10.6954C17.9298 10.8479 17.9007 10.9241 17.8875 10.9837C17.8744 11.0426 17.8694 11.0841 17.8679 11.1445C17.8665 11.2055 17.8748 11.2726 17.8913 11.4069L18.2268 14.1321C18.2631 14.4271 18.2813 14.5746 18.2322 14.6818C18.1892 14.7758 18.1128 14.8504 18.0179 14.8912C17.9096 14.9378 17.7625 14.9163 17.4684 14.8732L14.814 14.4841C14.6755 14.4638 14.6061 14.4536 14.543 14.454C14.4806 14.4543 14.4374 14.4589 14.3763 14.4718C14.3145 14.4848 14.2356 14.5143 14.0778 14.5734C13.3417 14.8491 12.544 15 11.7108 15C11.3623 15 11.02 14.9736 10.6859 14.9227M6.35997 18.3333C8.83072 18.3333 10.8337 16.2813 10.8337 13.75C10.8337 11.2187 8.83072 9.16666 6.35997 9.16666C3.88923 9.16666 1.88629 11.2187 1.88629 13.75C1.88629 14.2588 1.96722 14.7483 2.11662 15.2056C2.17977 15.3989 2.21134 15.4956 2.22171 15.5616C2.23252 15.6305 2.23442 15.6693 2.23039 15.7389C2.22653 15.8057 2.20984 15.8811 2.17645 16.0319L1.66699 18.3333L4.16266 17.9925C4.29888 17.9739 4.36699 17.9646 4.42647 17.965C4.48909 17.9654 4.52233 17.9688 4.58375 17.981C4.64208 17.9927 4.72879 18.0233 4.90222 18.0845C5.35915 18.2458 5.84958 18.3333 6.35997 18.3333Z" stroke="#717680" stroke-width="1.67" stroke-linecap="round" stroke-linejoin="round"/>
</g>
<defs>
<clipPath id="clip0_20682_617">
<rect width="20" height="20" fill="white"/>
</clipPath>
</defs>
</svg>
